Coordinates
version=1
nRows=7
nColumns=40
inDegrees=yes

Units are S.I. units (second, meters, Newtons, ...)
Angles are in degrees.

endheader
time	pelvis_tilt	pelvis_list	pelvis_rotation	pelvis_tx	pelvis_ty	pelvis_tz	hip_flexion_r	hip_adduction_r	hip_rotation_r	knee_angle_r	knee_angle_r_beta	ankle_angle_r	subtalar_angle_r	mtp_angle_r	hip_flexion_l	hip_adduction_l	hip_rotation_l	knee_angle_l	knee_angle_l_beta	ankle_angle_l	subtalar_angle_l	mtp_angle_l	lumbar_extension	lumbar_bending	lumbar_rotation	arm_flex_r	arm_add_r	arm_rot_r	elbow_flex_r	pro_sup_r	wrist_flex_r	wrist_dev_r	arm_flex_l	arm_add_l	arm_rot_l	elbow_flex_l	pro_sup_l	wrist_flex_l	wrist_dev_l
     12.50750000	     -4.86584942	     -6.62945778	     -2.28762341	      1.06989101	      0.91685081	      0.49041476	     23.81680051	      3.29058046	    -14.31172782	     21.99344104	     21.99344104	      5.22997201	     -2.50669889	     -1.79267701	      2.71537572	    -13.71089182	     -8.73018073	     42.01975870	     42.01975870	      8.78670881	    -14.57001027	    -11.43386808	     -9.68239609	      8.12890803	      2.39452288	     -6.94063707	    -10.71258784	    -15.35718543	     24.50782766	     47.00227835	      0.00000000	      0.00000000	     19.04980968	    -13.02809794	     -4.03579936	     75.33564056	     47.87152786	      0.00000000	      0.00000000
     12.51857143	     -4.71423850	     -6.76238542	     -2.00916580	      1.07000421	      0.91825393	      0.49267371	     22.86510397	      3.53509380	    -14.52109515	     21.73988836	     21.73988836	      5.78143095	     -2.34982704	     -1.92791980	      4.54422180	    -14.36096287	     -7.63881271	     45.80220093	     45.80220093	      6.88697513	    -15.43318522	    -10.84886462	     -9.92182049	      8.16730821	      2.37375903	     -5.12205643	    -10.73381440	    -15.22564081	     25.53496031	     46.95988236	      0.00000000	      0.00000000	     17.85799709	    -12.58480865	     -3.62464596	     73.90570473	     47.81107732	      0.00000000	      0.00000000
     12.52964286	     -4.86759630	     -6.70385688	     -1.61651530	      1.06970080	      0.91921067	      0.49436705	     22.23412496	      3.49522266	    -14.93440006	     21.42006965	     21.42006965	      6.25447054	     -1.97949942	     -2.13695441	      7.18240691	    -14.48758225	     -5.89481347	     50.12441300	     50.12441300	      7.51565573	    -15.49658910	     -3.78469898	     -9.66866780	      8.14359494	      2.63407794	     -4.74723107	    -11.07627082	    -13.18954945	     29.20639406	     46.60112088	      0.00000000	      0.00000000	     17.94641487	    -11.83284403	     -2.69979966	     68.45633178	     47.65372663	      0.00000000	      0.00000000
     12.54071429	     -4.84098828	     -6.85881597	     -1.27205004	      1.06934479	      0.92013894	      0.49614411	     21.41579880	      3.72293248	    -15.31834150	     21.10883203	     21.10883203	      6.69822480	     -1.73566631	     -2.28343630	      9.34953104	    -14.92113660	     -4.58438777	     53.56892449	     53.56892449	      5.93077409	    -16.40776846	     -3.14720955	     -9.77917719	      8.24435074	      2.51542282	     -2.74366781	    -11.17677276	    -13.07440833	     30.28287067	     46.56141181	      0.00000000	      0.00000000	     16.69678393	    -11.40129920	     -2.34873447	     66.81531489	     47.59302500	      0.00000000	      0.00000000
     12.55178571	     -4.92293973	     -6.78266286	     -0.88010361	      1.06876175	      0.92094043	      0.49745875	     20.72344058	      3.62525212	    -15.84348766	     20.80150562	     20.80150562	      7.09781849	     -1.11486072	     -2.71728619	     11.89165443	    -14.86449670	     -3.07054842	     57.17143344	     57.17143344	      6.79037370	    -16.45698537	      2.90072103	     -9.60834611	      8.17673355	      2.80179596	     -1.74810185	    -11.56738131	    -11.59005050	     32.96125885	     46.33218505	      0.00000000	      0.00000000	     17.09702559	    -10.35128811	     -2.12985536	     60.48924471	     47.47602209	      0.00000000	      0.00000000
     12.56285714	     -4.93725029	     -6.83340417	     -0.53357892	      1.06804658	      0.92167947	      0.49883804	     19.98016902	      3.72360548	    -16.20397778	     20.49532302	     20.49532302	      7.49407841	     -0.78375093	     -2.89417421	     14.17194121	    -15.00585636	     -1.89174446	     60.05285216	     60.05285216	      6.34357739	    -17.02575294	      4.60869859	     -9.64729585	      8.18906060	      2.48962308	      0.20290705	    -11.71925088	    -11.12405414	     34.89085443	     46.22898201	      0.00000000	      0.00000000	     16.08948655	    -10.13380796	     -1.65968507	     57.39900157	     47.38233221	      0.00000000	      0.00000000
     12.57392857	     -4.96758330	     -6.90659530	     -0.19960030	      1.06716794	      0.92234829	      0.50005740	     19.24915812	      3.85028401	    -16.57392323	     20.14821037	     20.14821037	      7.85146121	     -0.43542910	     -3.04579678	     16.49359467	    -15.11898683	     -0.80546192	     62.61069762	     62.61069762	      6.44748333	    -17.39392610	      6.72088434	     -9.66194990	      8.23796409	      2.62325763	      1.89186896	    -12.04097405	    -10.41907976	     36.92621472	     46.10710355	      0.00000000	      0.00000000	     15.67692205	     -9.49600789	     -1.25309355	     53.23887110	     47.28168525	      0.00000000	      0.00000000
